<?xml version="1.0" encoding="UTF-8"?>
<svg width="48px" height="48px" viewBox="0 0 48 48" version="1.1" xmlns="http://www.w3.org/2000/svg" xmlns:xlink="http://www.w3.org/1999/xlink">
    <!-- Generator: Sketch 50.2 (55047) - http://www.bohemiancoding.com/sketch -->
    <title>info</title>
    <desc>Created with Sketch.</desc>
    <defs></defs>
    <g id="Page-1" stroke="none" stroke-width="1" fill="none" fill-rule="evenodd">
        <g id="info">
            <path d="M24,0 C10.7460328,0 0,10.7460328 0,24 C0,37.2539692 10.7460328,48 24,48 C37.2539692,48 48,37.2539692 48,24 C48,10.7460328 37.2539692,0 24,0 Z" id="Shape-path" fill="#7F7FFF"></path>
            <path d="M28.6296478,36.5008712 C27.425666,36.9721986 26.4686548,37.3353534 25.7508949,37.5826076 C25.0331371,37.8298615 24.2073284,37.9534884 23.2580364,37.9534884 C21.8070841,37.9534884 20.6725622,37.5980599 19.8621903,36.8872046 C19.0595357,36.1840775 18.6582085,35.2800537 18.6582085,34.182865 C18.6582085,33.7578967 18.6890798,33.3252023 18.7508225,32.8847814 C18.8048458,32.4366327 18.9051791,31.9421248 19.0363817,31.3780771 L20.5413595,26.062116 C20.6725622,25.5521557 20.7883302,25.0731 20.8809441,24.617225 C20.9735582,24.161352 21.0121469,23.7441097 21.0121469,23.3655027 C21.0121469,22.6932803 20.8732248,22.2142268 20.595383,21.9515183 C20.3098236,21.6810838 19.7772937,21.5497306 18.9900738,21.5497306 C18.6041831,21.5497306 18.2028559,21.6115442 17.7938112,21.7274449 C17.3847646,21.8510719 17.0374627,21.9669726 16.744186,22.0751454 L17.1455133,20.4370875 C18.1256766,20.0352998 19.0672531,19.6953256 19.9702389,19.4094387 C20.8655075,19.1235517 21.7221875,18.9767442 22.5171247,18.9767442 C23.9603578,18.9767442 25.079445,19.3321708 25.8589456,20.0275736 C26.6384462,20.7229746 27.0320561,21.6347247 27.0320561,22.7473676 C27.0320561,22.9791674 27.0089021,23.3886832 26.9548767,23.9681833 C26.9008534,24.5476854 26.8005202,25.0808262 26.6538828,25.5753343 L25.1566223,30.8758428 C25.0331371,31.300811 24.9250883,31.787591 24.8247549,32.3284601 C24.732141,32.8693271 24.6858351,33.2865694 24.6858351,33.56473 C24.6858351,34.2678591 24.8401918,34.7546389 25.1566223,35.009621 C25.4653356,35.2646013 26.0133023,35.3882282 26.7928028,35.3882282 C27.1555413,35.3882282 27.5645861,35.3264147 28.027656,35.2027877 C28.4830085,35.0714346 28.8148758,34.9632599 29.0232558,34.8628136 L28.6296478,36.5008712 Z" id="Shape-path" fill="#FFFFFF"></path>
            <path d="M28.9919135,14.6522929 C28.2324569,15.3027029 27.3126726,15.627907 26.2409961,15.627907 C25.1693217,15.627907 24.2410972,15.3027029 23.473203,14.6522929 C22.7053107,14.0018828 22.3255814,13.2120982 22.3255814,12.2906835 C22.3255814,11.3692707 22.7137486,10.5717436 23.473203,9.91359111 C24.2410972,9.25543659 25.1693217,8.93023256 26.2409961,8.93023256 C27.3126726,8.93023256 28.2324569,9.25543659 28.9919135,9.91359111 C29.7598077,10.5717436 30.1395349,11.3692707 30.1395349,12.2906835 C30.1395349,13.2120982 29.7598077,14.0018828 28.9919135,14.6522929 Z" id="Shape-path" fill="#FFFFFF"></path>
        </g>
    </g>
</svg>