<?xml version="1.0" encoding="UTF-8"?>
<svg width="11px" height="22px" viewBox="0 0 11 22" version="1.1" xmlns="http://www.w3.org/2000/svg" xmlns:xlink="http://www.w3.org/1999/xlink">
    <!-- Generator: Sketch 48.2 (47327) - http://www.bohemiancoding.com/sketch -->
    <title>Person</title>
    <desc>Created with Sketch.</desc>
    <defs></defs>
    <g id="zoom-navigation/light" stroke="none" stroke-width="1" fill="none" fill-rule="evenodd" transform="translate(-10.000000, -7.000000)">
        <path d="M10.2131644,25.8918783 C10.9777392,24.4210733 13.3385934,22.0003983 13.3389467,22 C13.5512893,24.0881209 14,25.2024758 14,25.2024758 C14,25.2024758 12.7814148,26.1754453 12.1094087,27.4674278 C11.7843585,28.0915143 10.9378145,28.142891 10.4622518,27.7478088 C9.90648655,27.2850209 9.88882078,26.5155665 10.2131644,25.8918783 Z M20.5959497,15.7617809 C21.805334,16.8126939 20.0284405,18.5374103 18.8239388,17.4927396 C18.1873219,16.9386419 17.5270432,16.4208965 16.842727,15.9380346 C17.0688292,17.4262773 17.2938048,18.9148871 17.5199071,20.4027626 C17.6415967,21.2083891 17.4061047,22.005203 16.7563424,22.4476734 C17.0519279,24.0717783 17.5319258,25.6819298 18.2500447,27.1363905 C18.9478819,28.5508269 16.7893939,29.7930486 16.0881763,28.3720027 C15.1270538,26.4251331 14.5174791,24.3089865 14.1854618,22.1638314 C13.9777632,21.9501237 13.8290314,21.6872118 13.7828345,21.3817053 C13.5548542,19.8751029 13.3264985,18.3681333 13.0977671,16.8611637 C12.8326039,17.2782976 12.5787084,17.7035098 12.3323245,18.1349643 C11.5439712,19.5130483 9.38135166,18.2789048 10.1704561,16.8997192 C10.9651944,15.5095177 11.8508243,14.1938568 12.9111012,12.9832139 C13.1308186,12.5477202 13.5169201,12.2054942 14.0889364,12.0556785 C14.305649,11.9987632 14.5422677,11.9870129 14.7785108,12.013451 C14.9197308,12.0174901 15.0665846,12.0461314 15.2160675,12.1052498 C15.4395407,12.1768529 15.6513708,12.284074 15.8365343,12.4210378 C17.5574656,13.3415965 19.1300408,14.4861443 20.5959497,15.7617809 Z M14,11 C12.8954305,11 12,10.1045695 12,9 C12,7.8954305 12.8954305,7 14,7 C15.1045695,7 16,7.8954305 16,9 C16,10.1045695 15.1045695,11 14,11 Z" id="Person" fill="#9E9E9E" fill-rule="nonzero"></path>
    </g>
</svg>