<?xml version="1.0" encoding="UTF-8"?>
<svg width="123px" height="387px" viewBox="0 0 123 387" version="1.1" xmlns="http://www.w3.org/2000/svg" xmlns:xlink="http://www.w3.org/1999/xlink">
    <!-- Generator: Sketch 48.2 (47327) - http://www.bohemiancoding.com/sketch -->
    <title>Welcome Woman</title>
    <desc>Created with Sketch.</desc>
    <defs></defs>
    <g id="Home" stroke="none" stroke-width="1" fill="none" fill-rule="evenodd" transform="translate(-659.000000, -300.000000)">
        <path d="M722.572658,530.640458 C723.025641,537.793892 723.18095,544.982455 723.990772,552.095213 C725.689921,567.002976 725.956164,581.825689 723.099598,596.639158 C722.674348,598.843059 723.245662,601.25034 723.441646,603.55778 C724.120196,611.550619 725.560497,619.5564 725.375606,627.527052 C725.085327,640.038628 725.863718,652.415233 727.821714,664.716033 C728.38933,668.277034 730.112514,671.697518 731.573153,675.064383 C734.928925,682.802073 732.157409,686.938085 723.767054,686.470311 C722.672499,686.411146 721.5687,686.133809 720.490785,686.218859 C713.701587,686.773532 712.23725,681.657597 714.152721,676.593432 C716.674635,669.933658 715.465447,664.037483 714.326519,657.259378 C711.233292,638.844232 703.392063,621.216722 705.189204,601.941833 C706.355867,589.411768 702.463911,577.445621 698.993506,565.664365 C695.436203,553.598377 693.424588,541.415907 692.755283,528.92467 C692.359616,521.566007 691.721742,514.218438 691.366751,506.859775 C691.239176,504.215833 690.433052,502.254139 687.765074,501.597776 C684.475863,500.786105 683.930434,498.635822 684.466618,495.720091 C686.594714,484.18474 688.94283,472.678971 690.697446,461.086304 C691.777209,453.960604 693.003037,446.579754 692.244984,439.518766 C691.16522,429.477335 687.003323,420.223539 680.687446,412.082787 C673.284409,402.544259 667.308731,392.268016 662.200192,381.209684 C658.962751,374.200466 657.574219,368.777612 660.954027,361.596444 C665.655806,351.601236 669.288914,341.103123 673.376855,330.819485 C673.630155,330.18346 674.070196,329.53819 674.070196,328.896618 C674.075743,318.516836 681.114544,311.391136 685.962387,303.272571 C686.33032,302.653186 687.68742,302.623604 688.584141,302.322231 C688.765335,302.673524 688.948377,303.026666 689.12957,303.379808 C689.62138,302.457202 690.11319,301.534595 690.932257,300 C692.644348,301.057577 694.288029,302.285253 696.105508,303.150543 C699.980824,304.999453 698.721716,308.654749 698.059806,310.99362 C696.27191,317.32244 692.882858,322.841437 687.227041,326.779616 C685.440994,328.023932 683.612422,330.004115 683.002281,332.013881 C679.193526,344.549492 675.65841,357.172002 672.234228,369.820397 C671.868144,371.171951 672.406177,373.139191 673.212302,374.370565 C676.429406,379.281271 679.735257,384.158696 683.373912,388.758785 C685.677655,391.674516 688.528674,394.190883 691.313133,396.686912 C694.029182,399.121927 696.974496,401.303641 700.511461,404.15466 C700.93856,398.090235 701.312039,392.51577 701.726195,386.946853 C702.131107,381.492567 702.232797,375.984664 703.101785,370.602486 C703.972621,365.212913 706.646145,360.67014 711.18522,357.231167 C718.83786,351.434834 731.005538,353.178356 736.047516,361.53543 C738.68776,365.908103 740.309254,370.933441 742.117488,375.764644 C745.458469,384.685635 748.590523,393.682433 751.835361,402.636705 C752.018403,403.135911 752.369696,403.622174 752.759816,403.988258 C762.363055,413.014638 760.434642,424.810685 761.000409,436.235102 C761.553233,447.395124 762.673672,458.630951 764.835048,469.578349 C767.778513,484.480565 771.825778,499.172006 775.671511,513.883785 C776.658829,517.657411 778.966269,521.070499 780.132932,524.816391 C781.808044,530.194871 781.937468,535.601084 777.718255,540.099483 C776.764217,541.118233 775.366441,542.066724 774.040772,542.297837 C772.570889,542.554836 770.953092,541.952091 769.398159,541.722826 C769.710625,540.472963 769.852991,539.150992 770.36329,537.988028 C772.17892,533.837224 773.402898,529.956361 770.263449,525.626214 C768.948874,523.816131 768.688177,520.913342 768.714062,518.517154 C768.810205,509.688607 763.875464,502.703425 760.591799,495.102555 C757.607658,488.196875 754.580992,481.304138 751.809476,474.311559 C751.029236,472.34247 751.053271,470.049821 750.744503,467.899538 C750.082594,463.284658 749.442871,458.664232 748.22259,454.130704 C747.706744,463.240285 747.985929,472.113205 750.711223,481.019405 C753.209101,489.191589 756.283839,498.18099 755.168946,506.266275 C752.630392,524.659234 756.531593,543.026308 753.552998,561.349008 C752.20884,569.598846 753.976399,578.316458 753.116655,586.695719 C752.072021,596.849934 749.594481,606.84884 748.056188,616.962379 C747.636485,619.737594 747.799189,622.864101 748.653386,625.519136 C750.740806,631.986624 753.43097,638.256278 755.767993,644.647961 C756.124832,645.620488 756.015747,646.825977 755.902963,647.900194 C755.300218,653.727959 751.946295,655.170109 747.176107,651.832826 C742.505759,648.565802 740.165039,644.14136 739.257224,638.544708 C738.610106,634.53812 737.206783,630.629524 735.88851,626.763452 C734.557294,622.86595 734.387195,619.386301 735.302405,615.065397 C736.446881,609.673975 734.893796,603.705693 734.457453,597.988862 C734.374252,596.909099 733.808486,595.827486 733.893536,594.779154 C735.283916,577.767331 729.833329,561.633741 727.579507,545.089692 C727.154258,541.97058 726.854734,538.827433 726.287119,535.732357 C725.943222,533.850166 725.198111,532.041932 724.634193,530.202267 C723.946399,530.34833 723.260453,530.494394 722.572658,530.640458" id="Welcome-Woman" fill="#9E9E9E"></path>
    </g>
</svg>